<svg width="180" height="180" viewBox="0 0 180 180" fill="none" xmlns="http://www.w3.org/2000/svg">
<path d="M82.7164 2.43707C87.1898 -0.288051 92.8102 -0.288055 97.2836 2.43707L107.685 8.77332C109.975 10.1684 112.617 10.8764 115.298 10.8133L127.474 10.5265C132.71 10.4031 137.578 13.2133 140.089 17.8101L145.929 28.498C147.214 30.8511 149.149 32.7856 151.502 34.0713L162.19 39.9108C166.787 42.4223 169.597 47.2897 169.474 52.5263L169.187 64.7021C169.124 67.3828 169.832 70.0253 171.227 72.3153L177.563 82.7164C180.288 87.1898 180.288 92.8102 177.563 97.2836L171.227 107.685C169.832 109.975 169.124 112.617 169.187 115.298L169.474 127.474C169.597 132.71 166.787 137.578 162.19 140.089L151.502 145.929C149.149 147.214 147.214 149.149 145.929 151.502L140.089 162.19C137.578 166.787 132.71 169.597 127.474 169.474L115.298 169.187C112.617 169.124 109.975 169.832 107.685 171.227L97.2836 177.563C92.8102 180.288 87.1898 180.288 82.7164 177.563L72.3153 171.227C70.0253 169.832 67.3828 169.124 64.7021 169.187L52.5263 169.474C47.2897 169.597 42.4223 166.787 39.9108 162.19L34.0713 151.502C32.7856 149.149 30.8511 147.214 28.498 145.929L17.8101 140.089C13.2134 137.578 10.4031 132.71 10.5265 127.474L10.8133 115.298C10.8764 112.617 10.1684 109.975 8.77333 107.685L2.43707 97.2836C-0.288051 92.8102 -0.288055 87.1898 2.43707 82.7164L8.77332 72.3153C10.1684 70.0253 10.8764 67.3828 10.8133 64.7021L10.5265 52.5263C10.4031 47.2897 13.2133 42.4223 17.8101 39.9108L28.498 34.0713C30.8511 32.7856 32.7856 30.8511 34.0713 28.498L39.9108 17.8101C42.4223 13.2134 47.2897 10.4031 52.5263 10.5265L64.7021 10.8133C67.3828 10.8764 70.0253 10.1684 72.3153 8.77333L82.7164 2.43707Z" fill="#C6EEFF"/>
</svg>